<svg id="Layer_1" data-name="Layer 1" xmlns="http://www.w3.org/2000/svg" viewBox="0 0 9.4 9.36"><defs><style>.cls-1{fill:#fff;}</style></defs><title>logo_main2</title><path class="cls-1" d="M0.28,4.88A6.46,6.46,0,0,1,.6,2.51a3.14,3.14,0,0,1,1-1.39A3.34,3.34,0,0,1,3.05.47,10.67,10.67,0,0,1,5,.31,6.56,6.56,0,0,1,7,.58a4.09,4.09,0,0,1,1.33.69,3.16,3.16,0,0,1,.8.95,4.36,4.36,0,0,1,.4,1,4.48,4.48,0,0,1,.14.94c0,0.29,0,.52,0,0.69q0,0.59,0,1.18a5.46,5.46,0,0,1-.15,1.12,3.34,3.34,0,0,1-.42,1A2.57,2.57,0,0,1,8.29,9,4.31,4.31,0,0,1,7,9.48a8.72,8.72,0,0,1-2,.19A8.13,8.13,0,0,1,3.31,9.5a3.61,3.61,0,0,1-1.49-.69A3.76,3.76,0,0,1,.72,7.36,6.18,6.18,0,0,1,.28,4.88ZM2.11,8.56l0.1,0H3.37l0.22,0a0.81,0.81,0,0,0,.2-0.07A0.21,0.21,0,0,0,3.9,8.31a0.54,0.54,0,0,1,0-.1l0-.1v0A0.24,0.24,0,0,0,3.89,7.9a0.34,0.34,0,0,0-.14-0.09l-0.18,0-0.19,0h0s0,0,0-.09,0-.07,0-0.09a0,0,0,0,1,0,0,0.3,0.3,0,0,0,0-.06V7.34a0.27,0.27,0,0,1,0-.08V7.18s0-.08,0-0.13,0-.09,0-0.13V6.84h0V6.76a3.38,3.38,0,0,0,.43-0.29,1.48,1.48,0,0,1,.44-0.24h0L4.38,6.32,4.56,6.54,4.73,6.78l0.1,0.17V7L5.16,7.46,5.23,7.54,5.29,7.62s0,0,0,.05l-0.51,0a0.13,0.13,0,0,0-.11,0,0.27,0.27,0,0,0,0,.12,0.79,0.79,0,0,0,0,.14V8.14a0.2,0.2,0,0,0,.09.22L5,8.41H5.07l0.12,0,0.12,0H6.54a0.52,0.52,0,0,0,.19,0,0.31,0.31,0,0,0,.13-0.11,0.35,0.35,0,0,0,0-.22V7.85a0.15,0.15,0,0,0,0-.11,0.31,0.31,0,0,0-.14-0.11l-0.12,0H6.49a0.16,0.16,0,0,1-.11-0.07l0-.07,0-.07L6.16,7.22,6,7,5.83,6.77,5.74,6.65a3.1,3.1,0,0,1-.28-0.46C5.38,6,5.3,5.86,5.21,5.71a0.62,0.62,0,0,0-.1-0.15A0.26,0.26,0,0,1,5,5.4H5a5.08,5.08,0,0,1,.35-0.52l0.39-.5,0-.06a0.05,0.05,0,0,1,0,0H6.15a0.47,0.47,0,0,0,.3-0.09,0.27,0.27,0,0,0,.06-0.22V3.87a1.51,1.51,0,0,0,0-.3A0.33,0.33,0,0,0,6.2,3.4H5.14L5,3.39l-0.16,0H4.61a0.35,0.35,0,0,0-.33.37,0.34,0.34,0,0,0,0,.17,0.2,0.2,0,0,0,.1.09L4.54,4a0.19,0.19,0,0,1,.1,0l0,0,0,0,0,0,0,0,0,0v0a0.21,0.21,0,0,0-.06.07,0.21,0.21,0,0,1-.06.07l-0.08.07-0.12.12L4,4.73,3.94,4.8l-0.28.27L3.4,5.35l0,0,0,0V4.84a2.17,2.17,0,0,1,0-.46,3,3,0,0,0,0-.47V3.69q0-.1,0-0.21c0-.07,0-0.14,0-0.2V3.15a2.67,2.67,0,0,0,0-.31,2.56,2.56,0,0,1,0-.31,2.16,2.16,0,0,0,0-.33q0-.14,0-0.34a0.17,0.17,0,0,1,0-.07V1.71l0,0,0-.06H3a0.87,0.87,0,0,0-.25,0H2.58a0.62,0.62,0,0,0-.21,0l-0.06,0h0a0.17,0.17,0,0,0-.11,0L2,1.76l-0.1.1a0.1,0.1,0,0,0,0,.09A0.28,0.28,0,0,0,1.9,2V2.17c0,0.12,0,.19.06,0.19l0.11,0H2.29l0.23,0V3.1a0.73,0.73,0,0,0,0,.11l0,0.1a8.53,8.53,0,0,1,0,.93q0,0.48,0,1t-0.06,1a8.46,8.46,0,0,0,0,.92V7.17a1,1,0,0,1,0,.1V7.44a0.78,0.78,0,0,1,0,.17,0.26,0.26,0,0,1-.07.14l0,0h0l-0.15,0L2,7.84A0.21,0.21,0,0,0,1.81,8a0.34,0.34,0,0,0,0,.19,0.43,0.43,0,0,0,.09.26A0.36,0.36,0,0,0,2.11,8.56Z" transform="translate(-0.28 -0.31)"/></svg>